<svg width="159" height="152" viewBox="0 0 159 152" fill="none" xmlns="http://www.w3.org/2000/svg">
<rect width="159" height="152" rx="30" fill="#FF5959"/>
<path d="M26.4623 39.352V34.708L37.5143 32.368V58H32.5103V37.768L26.4623 39.352ZM48.0338 45.4C48.0338 46.672 48.1538 47.836 48.3938 48.892C48.6338 49.924 48.9818 50.824 49.4378 51.592C49.8938 52.336 50.4338 52.912 51.0578 53.32C51.6818 53.728 52.3778 53.932 53.1458 53.932C53.9378 53.932 54.6458 53.728 55.2698 53.32C55.8938 52.912 56.4338 52.336 56.8898 51.592C57.3458 50.824 57.6938 49.924 57.9338 48.892C58.1738 47.836 58.2938 46.672 58.2938 45.4C58.2938 44.128 58.1738 42.976 57.9338 41.944C57.6938 40.888 57.3458 39.988 56.8898 39.244C56.4338 38.476 55.8938 37.888 55.2698 37.48C54.6458 37.072 53.9378 36.868 53.1458 36.868C52.3778 36.868 51.6818 37.072 51.0578 37.48C50.4338 37.888 49.8938 38.476 49.4378 39.244C48.9818 39.988 48.6338 40.888 48.3938 41.944C48.1538 42.976 48.0338 44.128 48.0338 45.4ZM43.0298 45.4C43.0298 42.736 43.4498 40.432 44.2898 38.488C45.1538 36.544 46.3418 35.044 47.8538 33.988C49.3898 32.908 51.1538 32.368 53.1458 32.368C55.2098 32.368 56.9978 32.908 58.5098 33.988C60.0218 35.044 61.1978 36.544 62.0378 38.488C62.8778 40.432 63.2978 42.736 63.2978 45.4C63.2978 48.064 62.8778 50.368 62.0378 52.312C61.1978 54.256 60.0218 55.768 58.5098 56.848C56.9978 57.904 55.2098 58.432 53.1458 58.432C51.1538 58.432 49.3898 57.904 47.8538 56.848C46.3418 55.768 45.1538 54.256 44.2898 52.312C43.4498 50.368 43.0298 48.064 43.0298 45.4ZM78.9588 50.64V58H76.6388V52.736H73.9988V58H71.6628V50.64H78.9588ZM80.4339 54.32C80.4339 53.5413 80.6152 52.864 80.9779 52.288C81.3405 51.712 81.8419 51.264 82.4819 50.944C83.1219 50.624 83.8419 50.464 84.6419 50.464C85.4419 50.464 86.1565 50.624 86.7859 50.944C87.4259 51.264 87.9272 51.712 88.2899 52.288C88.6632 52.864 88.8499 53.5413 88.8499 54.32C88.8499 55.088 88.6632 55.76 88.2899 56.336C87.9272 56.912 87.4259 57.36 86.7859 57.68C86.1565 58 85.4419 58.16 84.6419 58.16C83.8419 58.16 83.1219 58 82.4819 57.68C81.8419 57.36 81.3405 56.912 80.9779 56.336C80.6152 55.76 80.4339 55.088 80.4339 54.32ZM82.9139 54.32C82.9139 54.704 82.9939 55.0347 83.1539 55.312C83.3139 55.5787 83.5219 55.7867 83.7779 55.936C84.0339 56.0853 84.3219 56.16 84.6419 56.16C84.9512 56.16 85.2339 56.0853 85.4899 55.936C85.7565 55.7867 85.9645 55.5787 86.1139 55.312C86.2739 55.0347 86.3539 54.704 86.3539 54.32C86.3539 53.936 86.2739 53.6053 86.1139 53.328C85.9645 53.0507 85.7565 52.8373 85.4899 52.688C85.2339 52.5387 84.9512 52.464 84.6419 52.464C84.3219 52.464 84.0339 52.5387 83.7779 52.688C83.5219 52.8373 83.3139 53.0507 83.1539 53.328C82.9939 53.6053 82.9139 53.936 82.9139 54.32ZM91.2314 54.832V53.488H95.3914C95.3487 53.1893 95.2687 52.9387 95.1514 52.736C95.0447 52.5333 94.89 52.3787 94.6874 52.272C94.4954 52.1547 94.2554 52.096 93.9674 52.096C93.6367 52.096 93.3487 52.1707 93.1034 52.32C92.8687 52.4587 92.682 52.6667 92.5434 52.944C92.4047 53.2107 92.3354 53.5413 92.3354 53.936L92.3034 54.32C92.3034 54.8213 92.378 55.2267 92.5274 55.536C92.6874 55.8453 92.8954 56.0693 93.1514 56.208C93.418 56.3467 93.706 56.416 94.0154 56.416C94.314 56.416 94.5754 56.3787 94.7994 56.304C95.034 56.2293 95.2367 56.1227 95.4074 55.984C95.578 55.8347 95.722 55.6587 95.8394 55.456L97.9994 55.984C97.754 56.432 97.4607 56.8213 97.1194 57.152C96.778 57.472 96.3567 57.7227 95.8554 57.904C95.3647 58.0747 94.762 58.16 94.0474 58.16C93.162 58.16 92.4047 57.9947 91.7754 57.664C91.1567 57.3333 90.682 56.88 90.3514 56.304C90.0314 55.7173 89.8714 55.056 89.8714 54.32C89.8714 54.1813 89.8767 54.048 89.8874 53.92C89.898 53.792 89.914 53.664 89.9354 53.536C90.042 52.928 90.2607 52.3947 90.5914 51.936C90.9327 51.4773 91.386 51.12 91.9514 50.864C92.5274 50.608 93.2154 50.48 94.0154 50.48C94.8794 50.48 95.6047 50.6293 96.1914 50.928C96.778 51.2267 97.2207 51.6533 97.5194 52.208C97.8287 52.7627 97.9834 53.4293 97.9834 54.208C97.9834 54.272 97.9834 54.3627 97.9834 54.48C97.9834 54.5867 97.9727 54.704 97.9514 54.832H91.2314ZM102.915 54.32V53.6C103.256 53.6 103.501 53.536 103.651 53.408C103.811 53.2693 103.891 53.0987 103.891 52.896C103.891 52.6933 103.816 52.5333 103.667 52.416C103.517 52.288 103.32 52.224 103.075 52.224C102.893 52.224 102.728 52.2613 102.579 52.336C102.44 52.4107 102.333 52.512 102.259 52.64C102.184 52.768 102.141 52.9173 102.131 53.088H99.9385C99.9385 52.5653 100.067 52.112 100.323 51.728C100.589 51.3333 100.952 51.0293 101.411 50.816C101.88 50.592 102.429 50.48 103.059 50.48C103.645 50.48 104.168 50.576 104.627 50.768C105.085 50.9493 105.443 51.2 105.699 51.52C105.965 51.8293 106.099 52.1867 106.099 52.592C106.099 53.136 105.837 53.5733 105.315 53.904C104.803 54.224 104.003 54.3627 102.915 54.32ZM103.027 58.16C101.981 58.16 101.155 57.92 100.547 57.44C99.9492 56.9493 99.6078 56.2987 99.5225 55.488H101.811C101.896 55.7973 102.04 56.0373 102.243 56.208C102.445 56.368 102.701 56.448 103.011 56.448C103.245 56.448 103.448 56.416 103.619 56.352C103.789 56.2773 103.923 56.1813 104.019 56.064C104.115 55.936 104.163 55.7813 104.163 55.6C104.163 55.4187 104.115 55.2693 104.019 55.152C103.933 55.024 103.795 54.928 103.603 54.864C103.421 54.7893 103.192 54.752 102.915 54.752V53.84C104.035 53.7867 104.899 53.9467 105.507 54.32C106.115 54.6827 106.419 55.1947 106.419 55.856C106.419 56.3147 106.269 56.72 105.971 57.072C105.683 57.4133 105.283 57.68 104.771 57.872C104.259 58.064 103.677 58.16 103.027 58.16ZM112.741 53.552L110.981 57.52L108.645 57.024L112.741 50.08L116.837 57.024L114.501 57.52L112.741 53.552ZM115.429 58H110.133V59.44H107.781V56.096H117.701V59.44H115.429V58ZM118.934 54.32C118.934 53.5413 119.115 52.864 119.478 52.288C119.841 51.712 120.342 51.264 120.982 50.944C121.622 50.624 122.342 50.464 123.142 50.464C123.942 50.464 124.657 50.624 125.286 50.944C125.926 51.264 126.427 51.712 126.79 52.288C127.163 52.864 127.35 53.5413 127.35 54.32C127.35 55.088 127.163 55.76 126.79 56.336C126.427 56.912 125.926 57.36 125.286 57.68C124.657 58 123.942 58.16 123.142 58.16C122.342 58.16 121.622 58 120.982 57.68C120.342 57.36 119.841 56.912 119.478 56.336C119.115 55.76 118.934 55.088 118.934 54.32ZM121.414 54.32C121.414 54.704 121.494 55.0347 121.654 55.312C121.814 55.5787 122.022 55.7867 122.278 55.936C122.534 56.0853 122.822 56.16 123.142 56.16C123.451 56.16 123.734 56.0853 123.99 55.936C124.257 55.7867 124.465 55.5787 124.614 55.312C124.774 55.0347 124.854 54.704 124.854 54.32C124.854 53.936 124.774 53.6053 124.614 53.328C124.465 53.0507 124.257 52.8373 123.99 52.688C123.734 52.5387 123.451 52.464 123.142 52.464C122.822 52.464 122.534 52.5387 122.278 52.688C122.022 52.8373 121.814 53.0507 121.654 53.328C121.494 53.6053 121.414 53.936 121.414 54.32ZM128.787 50.64H131.107V58H128.787V50.64ZM133.779 50.64H136.675L133.523 53.68L136.995 58H134.147L130.627 53.68L133.779 50.64ZM35.9027 83.56V80.94H40.1427V83.56H35.9027ZM46.6324 87L52.8724 80.54C53.2458 80.1267 53.5658 79.7533 53.8324 79.42C54.1124 79.0867 54.3191 78.76 54.4524 78.44C54.5991 78.1067 54.6724 77.7533 54.6724 77.38C54.6724 77.1667 54.6324 76.9533 54.5524 76.74C54.4724 76.5267 54.3524 76.34 54.1924 76.18C54.0324 76.0067 53.8324 75.8733 53.5924 75.78C53.3524 75.6733 53.0724 75.62 52.7524 75.62C52.3258 75.62 51.9458 75.7267 51.6124 75.94C51.2924 76.1533 51.0458 76.4533 50.8724 76.84C50.7124 77.2267 50.6324 77.6733 50.6324 78.18H47.3124C47.3124 77.18 47.5191 76.2667 47.9324 75.44C48.3458 74.6133 48.9658 73.9533 49.7924 73.46C50.6324 72.9667 51.6524 72.72 52.8524 72.72C53.7191 72.72 54.4858 72.8533 55.1524 73.12C55.8191 73.3733 56.3724 73.72 56.8124 74.16C57.2658 74.5867 57.6058 75.06 57.8324 75.58C58.0591 76.1 58.1724 76.6267 58.1724 77.16C58.1724 77.92 57.9858 78.62 57.6124 79.26C57.2391 79.8867 56.7524 80.46 56.1524 80.98L52.8924 83.9H58.4924V87H46.6324ZM63.4174 80C63.4174 80.6533 63.4774 81.2533 63.5974 81.8C63.7174 82.3333 63.8908 82.7933 64.1174 83.18C64.3441 83.5533 64.6108 83.8467 64.9174 84.06C65.2374 84.26 65.5908 84.36 65.9774 84.36C66.3641 84.36 66.7108 84.26 67.0174 84.06C67.3374 83.8467 67.6108 83.5533 67.8374 83.18C68.0641 82.7933 68.2374 82.3333 68.3574 81.8C68.4774 81.2533 68.5374 80.6533 68.5374 80C68.5374 79.3467 68.4774 78.7533 68.3574 78.22C68.2374 77.6733 68.0641 77.2133 67.8374 76.84C67.6108 76.4533 67.3374 76.16 67.0174 75.96C66.7108 75.7467 66.3641 75.64 65.9774 75.64C65.5908 75.64 65.2374 75.7467 64.9174 75.96C64.6108 76.16 64.3441 76.4533 64.1174 76.84C63.8908 77.2133 63.7174 77.6733 63.5974 78.22C63.4774 78.7533 63.4174 79.3467 63.4174 80ZM60.1574 80C60.1574 78.48 60.3974 77.18 60.8774 76.1C61.3708 75.02 62.0574 74.1933 62.9374 73.62C63.8174 73.0333 64.8308 72.74 65.9774 72.74C67.1774 72.74 68.2108 73.0333 69.0774 73.62C69.9441 74.1933 70.6108 75.02 71.0774 76.1C71.5574 77.18 71.7974 78.48 71.7974 80C71.7974 81.52 71.5574 82.82 71.0774 83.9C70.6108 84.98 69.9441 85.8133 69.0774 86.4C68.2108 86.9733 67.1774 87.26 65.9774 87.26C64.8308 87.26 63.8174 86.9733 62.9374 86.4C62.0574 85.8133 61.3708 84.98 60.8774 83.9C60.3974 82.82 60.1574 81.52 60.1574 80ZM76.6596 80C76.6596 80.6533 76.7196 81.2533 76.8396 81.8C76.9596 82.3333 77.1329 82.7933 77.3596 83.18C77.5863 83.5533 77.8529 83.8467 78.1596 84.06C78.4796 84.26 78.8329 84.36 79.2196 84.36C79.6063 84.36 79.9529 84.26 80.2596 84.06C80.5796 83.8467 80.8529 83.5533 81.0796 83.18C81.3063 82.7933 81.4796 82.3333 81.5996 81.8C81.7196 81.2533 81.7796 80.6533 81.7796 80C81.7796 79.3467 81.7196 78.7533 81.5996 78.22C81.4796 77.6733 81.3063 77.2133 81.0796 76.84C80.8529 76.4533 80.5796 76.16 80.2596 75.96C79.9529 75.7467 79.6063 75.64 79.2196 75.64C78.8329 75.64 78.4796 75.7467 78.1596 75.96C77.8529 76.16 77.5863 76.4533 77.3596 76.84C77.1329 77.2133 76.9596 77.6733 76.8396 78.22C76.7196 78.7533 76.6596 79.3467 76.6596 80ZM73.3996 80C73.3996 78.48 73.6396 77.18 74.1196 76.1C74.6129 75.02 75.2996 74.1933 76.1796 73.62C77.0596 73.0333 78.0729 72.74 79.2196 72.74C80.4196 72.74 81.4529 73.0333 82.3196 73.62C83.1863 74.1933 83.8529 75.02 84.3196 76.1C84.7996 77.18 85.0396 78.48 85.0396 80C85.0396 81.52 84.7996 82.82 84.3196 83.9C83.8529 84.98 83.1863 85.8133 82.3196 86.4C81.4529 86.9733 80.4196 87.26 79.2196 87.26C78.0729 87.26 77.0596 86.9733 76.1796 86.4C75.2996 85.8133 74.6129 84.98 74.1196 83.9C73.6396 82.82 73.3996 81.52 73.3996 80ZM89.9018 80C89.9018 80.6533 89.9618 81.2533 90.0818 81.8C90.2018 82.3333 90.3751 82.7933 90.6018 83.18C90.8285 83.5533 91.0951 83.8467 91.4018 84.06C91.7218 84.26 92.0751 84.36 92.4618 84.36C92.8485 84.36 93.1951 84.26 93.5018 84.06C93.8218 83.8467 94.0951 83.5533 94.3218 83.18C94.5485 82.7933 94.7218 82.3333 94.8418 81.8C94.9618 81.2533 95.0218 80.6533 95.0218 80C95.0218 79.3467 94.9618 78.7533 94.8418 78.22C94.7218 77.6733 94.5485 77.2133 94.3218 76.84C94.0951 76.4533 93.8218 76.16 93.5018 75.96C93.1951 75.7467 92.8485 75.64 92.4618 75.64C92.0751 75.64 91.7218 75.7467 91.4018 75.96C91.0951 76.16 90.8285 76.4533 90.6018 76.84C90.3751 77.2133 90.2018 77.6733 90.0818 78.22C89.9618 78.7533 89.9018 79.3467 89.9018 80ZM86.6418 80C86.6418 78.48 86.8818 77.18 87.3618 76.1C87.8551 75.02 88.5418 74.1933 89.4218 73.62C90.3018 73.0333 91.3151 72.74 92.4618 72.74C93.6618 72.74 94.6951 73.0333 95.5618 73.62C96.4285 74.1933 97.0951 75.02 97.5618 76.1C98.0418 77.18 98.2818 78.48 98.2818 80C98.2818 81.52 98.0418 82.82 97.5618 83.9C97.0951 84.98 96.4285 85.8133 95.5618 86.4C94.6951 86.9733 93.6618 87.26 92.4618 87.26C91.3151 87.26 90.3018 86.9733 89.4218 86.4C88.5418 85.8133 87.8551 84.98 87.3618 83.9C86.8818 82.82 86.6418 81.52 86.6418 80ZM108.08 73H111.46V87H108.08V73ZM110.16 75.78V73H112.98C114.167 73 115.173 73.1467 116 73.44C116.827 73.72 117.453 74.1733 117.88 74.8C118.32 75.4133 118.54 76.22 118.54 77.22C118.54 78.2067 118.32 79.0133 117.88 79.64C117.453 80.2667 116.827 80.7267 116 81.02C115.173 81.3 114.167 81.44 112.98 81.44H110.16V78.66H112.98C113.473 78.66 113.893 78.62 114.24 78.54C114.587 78.4467 114.853 78.3 115.04 78.1C115.227 77.8867 115.32 77.5933 115.32 77.22C115.32 76.86 115.227 76.5733 115.04 76.36C114.853 76.1467 114.587 76 114.24 75.92C113.893 75.8267 113.473 75.78 112.98 75.78H110.16ZM111.22 85.46V82.84H115.46V85.46H111.22ZM105.68 81.32V78.7H109.92V81.32H105.68ZM105.68 85.46V82.84H109.92V85.46H105.68ZM42.4098 107.808C42.4098 107.979 42.4578 108.123 42.5538 108.24C42.6498 108.347 42.7778 108.432 42.9378 108.496C43.1084 108.549 43.2844 108.576 43.4658 108.576C43.7644 108.576 44.0364 108.528 44.2818 108.432C44.5378 108.336 44.7404 108.176 44.8898 107.952C45.0391 107.728 45.1138 107.419 45.1138 107.024L45.3698 107.92C45.3698 108.389 45.2471 108.795 45.0018 109.136C44.7671 109.467 44.4418 109.723 44.0258 109.904C43.6204 110.075 43.1618 110.16 42.6498 110.16C42.1378 110.16 41.6791 110.075 41.2738 109.904C40.8684 109.723 40.5484 109.467 40.3138 109.136C40.0898 108.795 39.9778 108.384 39.9778 107.904C39.9778 107.413 40.1058 106.992 40.3618 106.64C40.6284 106.288 41.0018 106.016 41.4818 105.824C41.9618 105.632 42.5218 105.536 43.1618 105.536C43.5351 105.536 43.8871 105.579 44.2178 105.664C44.5591 105.739 44.8524 105.84 45.0978 105.968C45.3538 106.085 45.5351 106.203 45.6418 106.32V107.456C45.3644 107.253 45.0764 107.104 44.7778 107.008C44.4898 106.901 44.1378 106.848 43.7218 106.848C43.4444 106.848 43.2044 106.891 43.0018 106.976C42.8098 107.051 42.6604 107.157 42.5538 107.296C42.4578 107.435 42.4098 107.605 42.4098 107.808ZM41.4658 104.912L40.6497 103.28C41.0658 103.077 41.5618 102.885 42.1378 102.704C42.7244 102.523 43.3484 102.432 44.0098 102.432C44.6711 102.432 45.2578 102.528 45.7698 102.72C46.2924 102.901 46.6978 103.168 46.9858 103.52C47.2844 103.872 47.4338 104.304 47.4338 104.816V110H45.1138V105.296C45.1138 104.987 44.9964 104.741 44.7618 104.56C44.5378 104.368 44.2231 104.272 43.8177 104.272C43.4658 104.272 43.1298 104.309 42.8098 104.384C42.5004 104.459 42.2284 104.549 41.9938 104.656C41.7591 104.752 41.5831 104.837 41.4658 104.912ZM53.2729 104.464L53.4649 102.48C54.2542 102.48 54.9475 102.645 55.5449 102.976C56.1529 103.307 56.6222 103.76 56.9529 104.336C57.2942 104.912 57.4649 105.573 57.4649 106.32C57.4649 107.056 57.2889 107.717 56.9369 108.304C56.5955 108.88 56.1102 109.333 55.4809 109.664C54.8622 109.995 54.1209 110.16 53.2569 110.16C52.4142 110.16 51.6569 109.984 50.9849 109.632C50.3235 109.269 49.8009 108.731 49.4169 108.016C49.0435 107.301 48.8569 106.416 48.8569 105.36L51.5289 106.32C51.5289 106.704 51.6089 107.035 51.7689 107.312C51.9289 107.579 52.1369 107.787 52.3929 107.936C52.6595 108.085 52.9475 108.16 53.2569 108.16C53.5769 108.16 53.8649 108.085 54.1209 107.936C54.3769 107.787 54.5849 107.579 54.7449 107.312C54.9049 107.035 54.9849 106.704 54.9849 106.32C54.9849 105.936 54.9049 105.605 54.7449 105.328C54.5955 105.051 54.3875 104.837 54.1209 104.688C53.8649 104.539 53.5822 104.464 53.2729 104.464ZM50.4569 106.32C50.4569 105.723 50.5262 105.189 50.6649 104.72C50.8035 104.24 51.0062 103.835 51.2729 103.504C51.5395 103.173 51.8542 102.923 52.2169 102.752C52.5902 102.571 53.0062 102.48 53.4649 102.48L53.2729 104.464C53.0595 104.464 52.8462 104.507 52.6329 104.592C52.4195 104.667 52.2275 104.784 52.0569 104.944C51.8969 105.104 51.7689 105.301 51.6729 105.536C51.5769 105.76 51.5289 106.021 51.5289 106.32H50.4569ZM48.8569 105.36C48.8569 104.357 48.9422 103.477 49.1129 102.72C49.2942 101.952 49.6142 101.296 50.0729 100.752C50.5315 100.197 51.1769 99.7493 52.0089 99.408C52.7342 99.1093 53.2889 98.816 53.6729 98.528C54.0675 98.24 54.3022 97.904 54.3769 97.52H56.6969C56.6435 97.9893 56.4729 98.4373 56.1849 98.864C55.8969 99.2907 55.5182 99.6747 55.0489 100.016C54.5902 100.347 54.0675 100.624 53.4809 100.848C52.8302 101.093 52.3182 101.403 51.9449 101.776C51.5822 102.149 51.3262 102.576 51.1769 103.056C51.0382 103.525 50.9689 104.027 50.9689 104.56L51.3689 106.304L48.8569 105.36ZM58.5433 106.32C58.5433 105.541 58.7246 104.864 59.0872 104.288C59.4499 103.712 59.9513 103.264 60.5913 102.944C61.2313 102.624 61.9513 102.464 62.7513 102.464C63.5513 102.464 64.2659 102.624 64.8953 102.944C65.5353 103.264 66.0366 103.712 66.3993 104.288C66.7726 104.864 66.9593 105.541 66.9593 106.32C66.9593 107.088 66.7726 107.76 66.3993 108.336C66.0366 108.912 65.5353 109.36 64.8953 109.68C64.2659 110 63.5513 110.16 62.7513 110.16C61.9513 110.16 61.2313 110 60.5913 109.68C59.9513 109.36 59.4499 108.912 59.0872 108.336C58.7246 107.76 58.5433 107.088 58.5433 106.32ZM61.0233 106.32C61.0233 106.704 61.1033 107.035 61.2633 107.312C61.4233 107.579 61.6313 107.787 61.8873 107.936C62.1433 108.085 62.4313 108.16 62.7513 108.16C63.0606 108.16 63.3433 108.085 63.5993 107.936C63.8659 107.787 64.0739 107.579 64.2233 107.312C64.3833 107.035 64.4633 106.704 64.4633 106.32C64.4633 105.936 64.3833 105.605 64.2233 105.328C64.0739 105.051 63.8659 104.837 63.5993 104.688C63.3433 104.539 63.0606 104.464 62.7513 104.464C62.4313 104.464 62.1433 104.539 61.8873 104.688C61.6313 104.837 61.4233 105.051 61.2633 105.328C61.1033 105.605 61.0233 105.936 61.0233 106.32ZM69.1648 107.024V105.216H75.1168V107.024H69.1648ZM74.0288 102.64H76.3488V110H74.0288V102.64ZM68.4128 102.64H70.7488V110H68.4128V102.64ZM79.1845 106.832V105.488H83.3445C83.3018 105.189 83.2218 104.939 83.1045 104.736C82.9978 104.533 82.8432 104.379 82.6405 104.272C82.4485 104.155 82.2085 104.096 81.9205 104.096C81.5898 104.096 81.3018 104.171 81.0565 104.32C80.8218 104.459 80.6352 104.667 80.4965 104.944C80.3578 105.211 80.2885 105.541 80.2885 105.936L80.2565 106.32C80.2565 106.821 80.3312 107.227 80.4805 107.536C80.6405 107.845 80.8485 108.069 81.1045 108.208C81.3712 108.347 81.6592 108.416 81.9685 108.416C82.2672 108.416 82.5285 108.379 82.7525 108.304C82.9872 108.229 83.1898 108.123 83.3605 107.984C83.5312 107.835 83.6752 107.659 83.7925 107.456L85.9525 107.984C85.7072 108.432 85.4138 108.821 85.0725 109.152C84.7312 109.472 84.3098 109.723 83.8085 109.904C83.3178 110.075 82.7152 110.16 82.0005 110.16C81.1152 110.16 80.3578 109.995 79.7285 109.664C79.1098 109.333 78.6352 108.88 78.3045 108.304C77.9845 107.717 77.8245 107.056 77.8245 106.32C77.8245 106.181 77.8298 106.048 77.8405 105.92C77.8512 105.792 77.8672 105.664 77.8885 105.536C77.9952 104.928 78.2138 104.395 78.5445 103.936C78.8858 103.477 79.3392 103.12 79.9045 102.864C80.4805 102.608 81.1685 102.48 81.9685 102.48C82.8325 102.48 83.5578 102.629 84.1445 102.928C84.7312 103.227 85.1738 103.653 85.4725 104.208C85.7818 104.763 85.9365 105.429 85.9365 106.208C85.9365 106.272 85.9365 106.363 85.9365 106.48C85.9365 106.587 85.9258 106.704 85.9045 106.832H79.1845ZM94.5156 110L93.5076 104.96L94.7236 102.08L96.9476 110H94.5156ZM91.2676 107.904L94.7236 102.08L94.8836 105.344L91.7476 110.496L91.2676 107.904ZM91.7476 110.496L88.6596 105.344L88.8196 102.08L92.2276 107.904L91.7476 110.496ZM86.5956 110L88.8196 102.08L90.0356 104.96L89.0276 110H86.5956ZM98.9033 106.832V105.488H103.063C103.021 105.189 102.941 104.939 102.823 104.736C102.717 104.533 102.562 104.379 102.359 104.272C102.167 104.155 101.927 104.096 101.639 104.096C101.309 104.096 101.021 104.171 100.775 104.32C100.541 104.459 100.354 104.667 100.215 104.944C100.077 105.211 100.007 105.541 100.007 105.936L99.9753 106.32C99.9753 106.821 100.05 107.227 100.199 107.536C100.359 107.845 100.567 108.069 100.823 108.208C101.09 108.347 101.378 108.416 101.687 108.416C101.986 108.416 102.247 108.379 102.471 108.304C102.706 108.229 102.909 108.123 103.079 107.984C103.25 107.835 103.394 107.659 103.511 107.456L105.671 107.984C105.426 108.432 105.133 108.821 104.791 109.152C104.45 109.472 104.029 109.723 103.527 109.904C103.037 110.075 102.434 110.16 101.719 110.16C100.834 110.16 100.077 109.995 99.4473 109.664C98.8286 109.333 98.3539 108.88 98.0233 108.304C97.7033 107.717 97.5433 107.056 97.5433 106.32C97.5433 106.181 97.5486 106.048 97.5592 105.92C97.5699 105.792 97.5859 105.664 97.6073 105.536C97.7139 104.928 97.9326 104.395 98.2633 103.936C98.6046 103.477 99.0579 103.12 99.6233 102.864C100.199 102.608 100.887 102.48 101.687 102.48C102.551 102.48 103.277 102.629 103.863 102.928C104.45 103.227 104.893 103.653 105.191 104.208C105.501 104.763 105.655 105.429 105.655 106.208C105.655 106.272 105.655 106.363 105.655 106.48C105.655 106.587 105.645 106.704 105.623 106.832H98.9033ZM107.93 107.024V105.216H113.882V107.024H107.93ZM112.794 102.64H115.114V110H112.794V102.64ZM107.178 102.64H109.514V110H107.178V102.64ZM116.158 102.64H121.326V104.64H116.158V102.64ZM117.582 102.96H119.902V110H117.582V102.96Z" fill="black"/>
</svg>
