<svg width="159" height="152" viewBox="0 0 159 152" fill="none" xmlns="http://www.w3.org/2000/svg">
<rect width="159" height="152" rx="30" fill="#FF5959"/>
<path d="M22.1477 58L33.5957 46.048C34.2437 45.352 34.7957 44.704 35.2517 44.104C35.7077 43.504 36.0557 42.904 36.2957 42.304C36.5357 41.704 36.6557 41.08 36.6557 40.432C36.6557 39.976 36.5717 39.532 36.4037 39.1C36.2357 38.668 35.9837 38.284 35.6477 37.948C35.3117 37.612 34.9037 37.348 34.4237 37.156C33.9437 36.94 33.3917 36.832 32.7677 36.832C31.8797 36.832 31.1117 37.048 30.4637 37.48C29.8397 37.888 29.3477 38.476 28.9877 39.244C28.6517 40.012 28.4837 40.9 28.4837 41.908H23.4437C23.4437 40.108 23.8037 38.488 24.5237 37.048C25.2437 35.608 26.2997 34.468 27.6917 33.628C29.1077 32.764 30.8357 32.332 32.8757 32.332C34.3877 32.332 35.7077 32.572 36.8357 33.052C37.9877 33.508 38.9357 34.12 39.6797 34.888C40.4477 35.632 41.0117 36.46 41.3717 37.372C41.7557 38.284 41.9477 39.196 41.9477 40.108C41.9477 41.452 41.6237 42.712 40.9757 43.888C40.3277 45.064 39.4757 46.132 38.4197 47.092L31.8677 53.284H42.4157V58H22.1477ZM50.5124 45.4C50.5124 46.672 50.6324 47.836 50.8724 48.892C51.1124 49.924 51.4604 50.824 51.9164 51.592C52.3724 52.336 52.9124 52.912 53.5364 53.32C54.1604 53.728 54.8564 53.932 55.6244 53.932C56.4164 53.932 57.1244 53.728 57.7484 53.32C58.3724 52.912 58.9124 52.336 59.3684 51.592C59.8244 50.824 60.1724 49.924 60.4124 48.892C60.6524 47.836 60.7724 46.672 60.7724 45.4C60.7724 44.128 60.6524 42.976 60.4124 41.944C60.1724 40.888 59.8244 39.988 59.3684 39.244C58.9124 38.476 58.3724 37.888 57.7484 37.48C57.1244 37.072 56.4164 36.868 55.6244 36.868C54.8564 36.868 54.1604 37.072 53.5364 37.48C52.9124 37.888 52.3724 38.476 51.9164 39.244C51.4604 39.988 51.1124 40.888 50.8724 41.944C50.6324 42.976 50.5124 44.128 50.5124 45.4ZM45.5084 45.4C45.5084 42.736 45.9284 40.432 46.7684 38.488C47.6324 36.544 48.8204 35.044 50.3324 33.988C51.8684 32.908 53.6324 32.368 55.6244 32.368C57.6884 32.368 59.4764 32.908 60.9884 33.988C62.5004 35.044 63.6764 36.544 64.5164 38.488C65.3564 40.432 65.7764 42.736 65.7764 45.4C65.7764 48.064 65.3564 50.368 64.5164 52.312C63.6764 54.256 62.5004 55.768 60.9884 56.848C59.4764 57.904 57.6884 58.432 55.6244 58.432C53.6324 58.432 51.8684 57.904 50.3324 56.848C48.8204 55.768 47.6324 54.256 46.7684 52.312C45.9284 50.368 45.5084 48.064 45.5084 45.4ZM81.4373 50.64V58H79.1173V52.736H76.4773V58H74.1413V50.64H81.4373ZM82.9124 54.32C82.9124 53.5413 83.0937 52.864 83.4564 52.288C83.8191 51.712 84.3204 51.264 84.9604 50.944C85.6004 50.624 86.3204 50.464 87.1204 50.464C87.9204 50.464 88.6351 50.624 89.2644 50.944C89.9044 51.264 90.4057 51.712 90.7684 52.288C91.1417 52.864 91.3284 53.5413 91.3284 54.32C91.3284 55.088 91.1417 55.76 90.7684 56.336C90.4057 56.912 89.9044 57.36 89.2644 57.68C88.6351 58 87.9204 58.16 87.1204 58.16C86.3204 58.16 85.6004 58 84.9604 57.68C84.3204 57.36 83.8191 56.912 83.4564 56.336C83.0937 55.76 82.9124 55.088 82.9124 54.32ZM85.3924 54.32C85.3924 54.704 85.4724 55.0347 85.6324 55.312C85.7924 55.5787 86.0004 55.7867 86.2564 55.936C86.5124 56.0853 86.8004 56.16 87.1204 56.16C87.4297 56.16 87.7124 56.0853 87.9684 55.936C88.2351 55.7867 88.4431 55.5787 88.5924 55.312C88.7524 55.0347 88.8324 54.704 88.8324 54.32C88.8324 53.936 88.7524 53.6053 88.5924 53.328C88.4431 53.0507 88.2351 52.8373 87.9684 52.688C87.7124 52.5387 87.4297 52.464 87.1204 52.464C86.8004 52.464 86.5124 52.5387 86.2564 52.688C86.0004 52.8373 85.7924 53.0507 85.6324 53.328C85.4724 53.6053 85.3924 53.936 85.3924 54.32ZM93.7099 54.832V53.488H97.8699C97.8272 53.1893 97.7472 52.9387 97.6299 52.736C97.5232 52.5333 97.3686 52.3787 97.1659 52.272C96.9739 52.1547 96.7339 52.096 96.4459 52.096C96.1152 52.096 95.8272 52.1707 95.5819 52.32C95.3472 52.4587 95.1606 52.6667 95.0219 52.944C94.8832 53.2107 94.8139 53.5413 94.8139 53.936L94.7819 54.32C94.7819 54.8213 94.8566 55.2267 95.0059 55.536C95.1659 55.8453 95.3739 56.0693 95.6299 56.208C95.8966 56.3467 96.1846 56.416 96.4939 56.416C96.7926 56.416 97.0539 56.3787 97.2779 56.304C97.5126 56.2293 97.7152 56.1227 97.8859 55.984C98.0566 55.8347 98.2006 55.6587 98.3179 55.456L100.478 55.984C100.233 56.432 99.9392 56.8213 99.5979 57.152C99.2566 57.472 98.8352 57.7227 98.3339 57.904C97.8432 58.0747 97.2406 58.16 96.5259 58.16C95.6406 58.16 94.8832 57.9947 94.2539 57.664C93.6352 57.3333 93.1606 56.88 92.8299 56.304C92.5099 55.7173 92.3499 55.056 92.3499 54.32C92.3499 54.1813 92.3552 54.048 92.3659 53.92C92.3766 53.792 92.3926 53.664 92.4139 53.536C92.5206 52.928 92.7392 52.3947 93.0699 51.936C93.4112 51.4773 93.8646 51.12 94.4299 50.864C95.0059 50.608 95.6939 50.48 96.4939 50.48C97.3579 50.48 98.0832 50.6293 98.6699 50.928C99.2566 51.2267 99.6992 51.6533 99.9979 52.208C100.307 52.7627 100.462 53.4293 100.462 54.208C100.462 54.272 100.462 54.3627 100.462 54.48C100.462 54.5867 100.451 54.704 100.43 54.832H93.7099ZM105.393 54.32V53.6C105.734 53.6 105.98 53.536 106.129 53.408C106.289 53.2693 106.369 53.0987 106.369 52.896C106.369 52.6933 106.294 52.5333 106.145 52.416C105.996 52.288 105.798 52.224 105.553 52.224C105.372 52.224 105.206 52.2613 105.057 52.336C104.918 52.4107 104.812 52.512 104.737 52.64C104.662 52.768 104.62 52.9173 104.609 53.088H102.417C102.417 52.5653 102.545 52.112 102.801 51.728C103.068 51.3333 103.43 51.0293 103.889 50.816C104.358 50.592 104.908 50.48 105.537 50.48C106.124 50.48 106.646 50.576 107.105 50.768C107.564 50.9493 107.921 51.2 108.177 51.52C108.444 51.8293 108.577 52.1867 108.577 52.592C108.577 53.136 108.316 53.5733 107.793 53.904C107.281 54.224 106.481 54.3627 105.393 54.32ZM105.505 58.16C104.46 58.16 103.633 57.92 103.025 57.44C102.428 56.9493 102.086 56.2987 102.001 55.488H104.289C104.374 55.7973 104.518 56.0373 104.721 56.208C104.924 56.368 105.18 56.448 105.489 56.448C105.724 56.448 105.926 56.416 106.097 56.352C106.268 56.2773 106.401 56.1813 106.497 56.064C106.593 55.936 106.641 55.7813 106.641 55.6C106.641 55.4187 106.593 55.2693 106.497 55.152C106.412 55.024 106.273 54.928 106.081 54.864C105.9 54.7893 105.67 54.752 105.393 54.752V53.84C106.513 53.7867 107.377 53.9467 107.985 54.32C108.593 54.6827 108.897 55.1947 108.897 55.856C108.897 56.3147 108.748 56.72 108.449 57.072C108.161 57.4133 107.761 57.68 107.249 57.872C106.737 58.064 106.156 58.16 105.505 58.16ZM115.219 53.552L113.459 57.52L111.123 57.024L115.219 50.08L119.315 57.024L116.979 57.52L115.219 53.552ZM117.907 58H112.611V59.44H110.259V56.096H120.179V59.44H117.907V58ZM121.412 54.32C121.412 53.5413 121.594 52.864 121.956 52.288C122.319 51.712 122.82 51.264 123.46 50.944C124.1 50.624 124.82 50.464 125.62 50.464C126.42 50.464 127.135 50.624 127.764 50.944C128.404 51.264 128.906 51.712 129.268 52.288C129.642 52.864 129.828 53.5413 129.828 54.32C129.828 55.088 129.642 55.76 129.268 56.336C128.906 56.912 128.404 57.36 127.764 57.68C127.135 58 126.42 58.16 125.62 58.16C124.82 58.16 124.1 58 123.46 57.68C122.82 57.36 122.319 56.912 121.956 56.336C121.594 55.76 121.412 55.088 121.412 54.32ZM123.892 54.32C123.892 54.704 123.972 55.0347 124.132 55.312C124.292 55.5787 124.5 55.7867 124.756 55.936C125.012 56.0853 125.3 56.16 125.62 56.16C125.93 56.16 126.212 56.0853 126.468 55.936C126.735 55.7867 126.943 55.5787 127.092 55.312C127.252 55.0347 127.332 54.704 127.332 54.32C127.332 53.936 127.252 53.6053 127.092 53.328C126.943 53.0507 126.735 52.8373 126.468 52.688C126.212 52.5387 125.93 52.464 125.62 52.464C125.3 52.464 125.012 52.5387 124.756 52.688C124.5 52.8373 124.292 53.0507 124.132 53.328C123.972 53.6053 123.892 53.936 123.892 54.32ZM131.266 50.64H133.586V58H131.266V50.64ZM136.258 50.64H139.154L136.002 53.68L139.474 58H136.626L133.106 53.68L136.258 50.64ZM36.2543 83.56V80.94H40.4943V83.56H36.2543ZM52.084 80.22V78.7C52.4707 78.7 52.8173 78.6533 53.124 78.56C53.444 78.4533 53.7173 78.3133 53.944 78.14C54.184 77.9667 54.364 77.7667 54.484 77.54C54.604 77.3133 54.664 77.0733 54.664 76.82C54.664 76.5533 54.604 76.3133 54.484 76.1C54.364 75.8867 54.1907 75.7267 53.964 75.62C53.7373 75.5 53.444 75.44 53.084 75.44C52.5507 75.44 52.1107 75.5933 51.764 75.9C51.4173 76.2067 51.244 76.6067 51.244 77.1H48.144C48.144 76.2733 48.344 75.5333 48.744 74.88C49.1573 74.2133 49.7373 73.6933 50.484 73.32C51.2307 72.9333 52.0973 72.74 53.084 72.74C54.1373 72.74 55.0307 72.9133 55.764 73.26C56.4973 73.6067 57.0507 74.0733 57.424 74.66C57.8107 75.2467 58.004 75.9 58.004 76.62C58.004 77.42 57.7373 78.0867 57.204 78.62C56.684 79.1533 55.9773 79.5533 55.084 79.82C54.1907 80.0867 53.1907 80.22 52.084 80.22ZM52.924 87.32C52.084 87.32 51.3307 87.1933 50.664 86.94C49.9973 86.6867 49.4307 86.3333 48.964 85.88C48.5107 85.4267 48.1573 84.9133 47.904 84.34C47.664 83.7667 47.544 83.1733 47.544 82.56H50.864C50.864 83.0133 50.964 83.3933 51.164 83.7C51.364 84.0067 51.6307 84.2333 51.964 84.38C52.3107 84.5267 52.6707 84.6 53.044 84.6C53.444 84.6 53.7907 84.54 54.084 84.42C54.3907 84.3 54.6307 84.1067 54.804 83.84C54.9773 83.5733 55.064 83.2467 55.064 82.86C55.064 82.5667 55.004 82.3 54.884 82.06C54.764 81.82 54.5773 81.6133 54.324 81.44C54.084 81.2533 53.7773 81.1133 53.404 81.02C53.0307 80.9267 52.5907 80.88 52.084 80.88V79.16C53.004 79.16 53.844 79.24 54.604 79.4C55.3773 79.5467 56.0507 79.7867 56.624 80.12C57.1973 80.44 57.6373 80.8533 57.944 81.36C58.2507 81.8667 58.404 82.4733 58.404 83.18C58.404 83.9933 58.184 84.7133 57.744 85.34C57.304 85.9533 56.6773 86.44 55.864 86.8C55.0507 87.1467 54.0707 87.32 52.924 87.32ZM63.0659 80C63.0659 80.6533 63.1259 81.2533 63.2459 81.8C63.3659 82.3333 63.5392 82.7933 63.7659 83.18C63.9925 83.5533 64.2592 83.8467 64.5659 84.06C64.8859 84.26 65.2392 84.36 65.6259 84.36C66.0125 84.36 66.3592 84.26 66.6659 84.06C66.9859 83.8467 67.2592 83.5533 67.4859 83.18C67.7125 82.7933 67.8859 82.3333 68.0059 81.8C68.1259 81.2533 68.1859 80.6533 68.1859 80C68.1859 79.3467 68.1259 78.7533 68.0059 78.22C67.8859 77.6733 67.7125 77.2133 67.4859 76.84C67.2592 76.4533 66.9859 76.16 66.6659 75.96C66.3592 75.7467 66.0125 75.64 65.6259 75.64C65.2392 75.64 64.8859 75.7467 64.5659 75.96C64.2592 76.16 63.9925 76.4533 63.7659 76.84C63.5392 77.2133 63.3659 77.6733 63.2459 78.22C63.1259 78.7533 63.0659 79.3467 63.0659 80ZM59.8059 80C59.8059 78.48 60.0459 77.18 60.5259 76.1C61.0192 75.02 61.7059 74.1933 62.5859 73.62C63.4659 73.0333 64.4792 72.74 65.6259 72.74C66.8259 72.74 67.8592 73.0333 68.7259 73.62C69.5925 74.1933 70.2592 75.02 70.7259 76.1C71.2059 77.18 71.4459 78.48 71.4459 80C71.4459 81.52 71.2059 82.82 70.7259 83.9C70.2592 84.98 69.5925 85.8133 68.7259 86.4C67.8592 86.9733 66.8259 87.26 65.6259 87.26C64.4792 87.26 63.4659 86.9733 62.5859 86.4C61.7059 85.8133 61.0192 84.98 60.5259 83.9C60.0459 82.82 59.8059 81.52 59.8059 80ZM76.308 80C76.308 80.6533 76.368 81.2533 76.488 81.8C76.608 82.3333 76.7814 82.7933 77.008 83.18C77.2347 83.5533 77.5014 83.8467 77.808 84.06C78.128 84.26 78.4814 84.36 78.868 84.36C79.2547 84.36 79.6014 84.26 79.908 84.06C80.228 83.8467 80.5014 83.5533 80.728 83.18C80.9547 82.7933 81.128 82.3333 81.248 81.8C81.368 81.2533 81.428 80.6533 81.428 80C81.428 79.3467 81.368 78.7533 81.248 78.22C81.128 77.6733 80.9547 77.2133 80.728 76.84C80.5014 76.4533 80.228 76.16 79.908 75.96C79.6014 75.7467 79.2547 75.64 78.868 75.64C78.4814 75.64 78.128 75.7467 77.808 75.96C77.5014 76.16 77.2347 76.4533 77.008 76.84C76.7814 77.2133 76.608 77.6733 76.488 78.22C76.368 78.7533 76.308 79.3467 76.308 80ZM73.048 80C73.048 78.48 73.288 77.18 73.768 76.1C74.2614 75.02 74.948 74.1933 75.828 73.62C76.708 73.0333 77.7214 72.74 78.868 72.74C80.068 72.74 81.1014 73.0333 81.968 73.62C82.8347 74.1933 83.5014 75.02 83.968 76.1C84.448 77.18 84.688 78.48 84.688 80C84.688 81.52 84.448 82.82 83.968 83.9C83.5014 84.98 82.8347 85.8133 81.968 86.4C81.1014 86.9733 80.068 87.26 78.868 87.26C77.7214 87.26 76.708 86.9733 75.828 86.4C74.948 85.8133 74.2614 84.98 73.768 83.9C73.288 82.82 73.048 81.52 73.048 80ZM89.5502 80C89.5502 80.6533 89.6102 81.2533 89.7302 81.8C89.8502 82.3333 90.0236 82.7933 90.2502 83.18C90.4769 83.5533 90.7436 83.8467 91.0502 84.06C91.3702 84.26 91.7236 84.36 92.1102 84.36C92.4969 84.36 92.8436 84.26 93.1502 84.06C93.4702 83.8467 93.7436 83.5533 93.9702 83.18C94.1969 82.7933 94.3702 82.3333 94.4902 81.8C94.6102 81.2533 94.6702 80.6533 94.6702 80C94.6702 79.3467 94.6102 78.7533 94.4902 78.22C94.3702 77.6733 94.1969 77.2133 93.9702 76.84C93.7436 76.4533 93.4702 76.16 93.1502 75.96C92.8436 75.7467 92.4969 75.64 92.1102 75.64C91.7236 75.64 91.3702 75.7467 91.0502 75.96C90.7436 76.16 90.4769 76.4533 90.2502 76.84C90.0236 77.2133 89.8502 77.6733 89.7302 78.22C89.6102 78.7533 89.5502 79.3467 89.5502 80ZM86.2902 80C86.2902 78.48 86.5302 77.18 87.0102 76.1C87.5036 75.02 88.1902 74.1933 89.0702 73.62C89.9502 73.0333 90.9636 72.74 92.1102 72.74C93.3102 72.74 94.3436 73.0333 95.2102 73.62C96.0769 74.1933 96.7436 75.02 97.2102 76.1C97.6902 77.18 97.9302 78.48 97.9302 80C97.9302 81.52 97.6902 82.82 97.2102 83.9C96.7436 84.98 96.0769 85.8133 95.2102 86.4C94.3436 86.9733 93.3102 87.26 92.1102 87.26C90.9636 87.26 89.9502 86.9733 89.0702 86.4C88.1902 85.8133 87.5036 84.98 87.0102 83.9C86.5302 82.82 86.2902 81.52 86.2902 80ZM107.729 73H111.109V87H107.729V73ZM109.809 75.78V73H112.629C113.815 73 114.822 73.1467 115.649 73.44C116.475 73.72 117.102 74.1733 117.529 74.8C117.969 75.4133 118.189 76.22 118.189 77.22C118.189 78.2067 117.969 79.0133 117.529 79.64C117.102 80.2667 116.475 80.7267 115.649 81.02C114.822 81.3 113.815 81.44 112.629 81.44H109.809V78.66H112.629C113.122 78.66 113.542 78.62 113.889 78.54C114.235 78.4467 114.502 78.3 114.689 78.1C114.875 77.8867 114.969 77.5933 114.969 77.22C114.969 76.86 114.875 76.5733 114.689 76.36C114.502 76.1467 114.235 76 113.889 75.92C113.542 75.8267 113.122 75.78 112.629 75.78H109.809ZM110.869 85.46V82.84H115.109V85.46H110.869ZM105.329 81.32V78.7H109.569V81.32H105.329ZM105.329 85.46V82.84H109.569V85.46H105.329ZM42.4098 107.808C42.4098 107.979 42.4578 108.123 42.5538 108.24C42.6498 108.347 42.7778 108.432 42.9378 108.496C43.1084 108.549 43.2844 108.576 43.4658 108.576C43.7644 108.576 44.0364 108.528 44.2818 108.432C44.5378 108.336 44.7404 108.176 44.8898 107.952C45.0391 107.728 45.1138 107.419 45.1138 107.024L45.3698 107.92C45.3698 108.389 45.2471 108.795 45.0018 109.136C44.7671 109.467 44.4418 109.723 44.0258 109.904C43.6204 110.075 43.1618 110.16 42.6498 110.16C42.1378 110.16 41.6791 110.075 41.2738 109.904C40.8684 109.723 40.5484 109.467 40.3138 109.136C40.0898 108.795 39.9778 108.384 39.9778 107.904C39.9778 107.413 40.1058 106.992 40.3618 106.64C40.6284 106.288 41.0018 106.016 41.4818 105.824C41.9618 105.632 42.5218 105.536 43.1618 105.536C43.5351 105.536 43.8871 105.579 44.2178 105.664C44.5591 105.739 44.8524 105.84 45.0978 105.968C45.3538 106.085 45.5351 106.203 45.6418 106.32V107.456C45.3644 107.253 45.0764 107.104 44.7778 107.008C44.4898 106.901 44.1378 106.848 43.7218 106.848C43.4444 106.848 43.2044 106.891 43.0018 106.976C42.8098 107.051 42.6604 107.157 42.5538 107.296C42.4578 107.435 42.4098 107.605 42.4098 107.808ZM41.4658 104.912L40.6497 103.28C41.0658 103.077 41.5618 102.885 42.1378 102.704C42.7244 102.523 43.3484 102.432 44.0098 102.432C44.6711 102.432 45.2578 102.528 45.7698 102.72C46.2924 102.901 46.6978 103.168 46.9858 103.52C47.2844 103.872 47.4338 104.304 47.4338 104.816V110H45.1138V105.296C45.1138 104.987 44.9964 104.741 44.7618 104.56C44.5378 104.368 44.2231 104.272 43.8177 104.272C43.4658 104.272 43.1298 104.309 42.8098 104.384C42.5004 104.459 42.2284 104.549 41.9938 104.656C41.7591 104.752 41.5831 104.837 41.4658 104.912ZM53.2729 104.464L53.4649 102.48C54.2542 102.48 54.9475 102.645 55.5449 102.976C56.1529 103.307 56.6222 103.76 56.9529 104.336C57.2942 104.912 57.4649 105.573 57.4649 106.32C57.4649 107.056 57.2889 107.717 56.9369 108.304C56.5955 108.88 56.1102 109.333 55.4809 109.664C54.8622 109.995 54.1209 110.16 53.2569 110.16C52.4142 110.16 51.6569 109.984 50.9849 109.632C50.3235 109.269 49.8009 108.731 49.4169 108.016C49.0435 107.301 48.8569 106.416 48.8569 105.36L51.5289 106.32C51.5289 106.704 51.6089 107.035 51.7689 107.312C51.9289 107.579 52.1369 107.787 52.3929 107.936C52.6595 108.085 52.9475 108.16 53.2569 108.16C53.5769 108.16 53.8649 108.085 54.1209 107.936C54.3769 107.787 54.5849 107.579 54.7449 107.312C54.9049 107.035 54.9849 106.704 54.9849 106.32C54.9849 105.936 54.9049 105.605 54.7449 105.328C54.5955 105.051 54.3875 104.837 54.1209 104.688C53.8649 104.539 53.5822 104.464 53.2729 104.464ZM50.4569 106.32C50.4569 105.723 50.5262 105.189 50.6649 104.72C50.8035 104.24 51.0062 103.835 51.2729 103.504C51.5395 103.173 51.8542 102.923 52.2169 102.752C52.5902 102.571 53.0062 102.48 53.4649 102.48L53.2729 104.464C53.0595 104.464 52.8462 104.507 52.6329 104.592C52.4195 104.667 52.2275 104.784 52.0569 104.944C51.8969 105.104 51.7689 105.301 51.6729 105.536C51.5769 105.76 51.5289 106.021 51.5289 106.32H50.4569ZM48.8569 105.36C48.8569 104.357 48.9422 103.477 49.1129 102.72C49.2942 101.952 49.6142 101.296 50.0729 100.752C50.5315 100.197 51.1769 99.7493 52.0089 99.408C52.7342 99.1093 53.2889 98.816 53.6729 98.528C54.0675 98.24 54.3022 97.904 54.3769 97.52H56.6969C56.6435 97.9893 56.4729 98.4373 56.1849 98.864C55.8969 99.2907 55.5182 99.6747 55.0489 100.016C54.5902 100.347 54.0675 100.624 53.4809 100.848C52.8302 101.093 52.3182 101.403 51.9449 101.776C51.5822 102.149 51.3262 102.576 51.1769 103.056C51.0382 103.525 50.9689 104.027 50.9689 104.56L51.3689 106.304L48.8569 105.36ZM58.5433 106.32C58.5433 105.541 58.7246 104.864 59.0872 104.288C59.4499 103.712 59.9513 103.264 60.5913 102.944C61.2313 102.624 61.9513 102.464 62.7513 102.464C63.5513 102.464 64.2659 102.624 64.8953 102.944C65.5353 103.264 66.0366 103.712 66.3993 104.288C66.7726 104.864 66.9593 105.541 66.9593 106.32C66.9593 107.088 66.7726 107.76 66.3993 108.336C66.0366 108.912 65.5353 109.36 64.8953 109.68C64.2659 110 63.5513 110.16 62.7513 110.16C61.9513 110.16 61.2313 110 60.5913 109.68C59.9513 109.36 59.4499 108.912 59.0872 108.336C58.7246 107.76 58.5433 107.088 58.5433 106.32ZM61.0233 106.32C61.0233 106.704 61.1033 107.035 61.2633 107.312C61.4233 107.579 61.6313 107.787 61.8873 107.936C62.1433 108.085 62.4313 108.16 62.7513 108.16C63.0606 108.16 63.3433 108.085 63.5993 107.936C63.8659 107.787 64.0739 107.579 64.2233 107.312C64.3833 107.035 64.4633 106.704 64.4633 106.32C64.4633 105.936 64.3833 105.605 64.2233 105.328C64.0739 105.051 63.8659 104.837 63.5993 104.688C63.3433 104.539 63.0606 104.464 62.7513 104.464C62.4313 104.464 62.1433 104.539 61.8873 104.688C61.6313 104.837 61.4233 105.051 61.2633 105.328C61.1033 105.605 61.0233 105.936 61.0233 106.32ZM69.1648 107.024V105.216H75.1168V107.024H69.1648ZM74.0288 102.64H76.3488V110H74.0288V102.64ZM68.4128 102.64H70.7488V110H68.4128V102.64ZM79.1845 106.832V105.488H83.3445C83.3018 105.189 83.2218 104.939 83.1045 104.736C82.9978 104.533 82.8432 104.379 82.6405 104.272C82.4485 104.155 82.2085 104.096 81.9205 104.096C81.5898 104.096 81.3018 104.171 81.0565 104.32C80.8218 104.459 80.6352 104.667 80.4965 104.944C80.3578 105.211 80.2885 105.541 80.2885 105.936L80.2565 106.32C80.2565 106.821 80.3312 107.227 80.4805 107.536C80.6405 107.845 80.8485 108.069 81.1045 108.208C81.3712 108.347 81.6592 108.416 81.9685 108.416C82.2672 108.416 82.5285 108.379 82.7525 108.304C82.9872 108.229 83.1898 108.123 83.3605 107.984C83.5312 107.835 83.6752 107.659 83.7925 107.456L85.9525 107.984C85.7072 108.432 85.4138 108.821 85.0725 109.152C84.7312 109.472 84.3098 109.723 83.8085 109.904C83.3178 110.075 82.7152 110.16 82.0005 110.16C81.1152 110.16 80.3578 109.995 79.7285 109.664C79.1098 109.333 78.6352 108.88 78.3045 108.304C77.9845 107.717 77.8245 107.056 77.8245 106.32C77.8245 106.181 77.8298 106.048 77.8405 105.92C77.8512 105.792 77.8672 105.664 77.8885 105.536C77.9952 104.928 78.2138 104.395 78.5445 103.936C78.8858 103.477 79.3392 103.12 79.9045 102.864C80.4805 102.608 81.1685 102.48 81.9685 102.48C82.8325 102.48 83.5578 102.629 84.1445 102.928C84.7312 103.227 85.1738 103.653 85.4725 104.208C85.7818 104.763 85.9365 105.429 85.9365 106.208C85.9365 106.272 85.9365 106.363 85.9365 106.48C85.9365 106.587 85.9258 106.704 85.9045 106.832H79.1845ZM94.5156 110L93.5076 104.96L94.7236 102.08L96.9476 110H94.5156ZM91.2676 107.904L94.7236 102.08L94.8836 105.344L91.7476 110.496L91.2676 107.904ZM91.7476 110.496L88.6596 105.344L88.8196 102.08L92.2276 107.904L91.7476 110.496ZM86.5956 110L88.8196 102.08L90.0356 104.96L89.0276 110H86.5956ZM98.9033 106.832V105.488H103.063C103.021 105.189 102.941 104.939 102.823 104.736C102.717 104.533 102.562 104.379 102.359 104.272C102.167 104.155 101.927 104.096 101.639 104.096C101.309 104.096 101.021 104.171 100.775 104.32C100.541 104.459 100.354 104.667 100.215 104.944C100.077 105.211 100.007 105.541 100.007 105.936L99.9753 106.32C99.9753 106.821 100.05 107.227 100.199 107.536C100.359 107.845 100.567 108.069 100.823 108.208C101.09 108.347 101.378 108.416 101.687 108.416C101.986 108.416 102.247 108.379 102.471 108.304C102.706 108.229 102.909 108.123 103.079 107.984C103.25 107.835 103.394 107.659 103.511 107.456L105.671 107.984C105.426 108.432 105.133 108.821 104.791 109.152C104.45 109.472 104.029 109.723 103.527 109.904C103.037 110.075 102.434 110.16 101.719 110.16C100.834 110.16 100.077 109.995 99.4473 109.664C98.8286 109.333 98.3539 108.88 98.0233 108.304C97.7033 107.717 97.5433 107.056 97.5433 106.32C97.5433 106.181 97.5486 106.048 97.5592 105.92C97.5699 105.792 97.5859 105.664 97.6073 105.536C97.7139 104.928 97.9326 104.395 98.2633 103.936C98.6046 103.477 99.0579 103.12 99.6233 102.864C100.199 102.608 100.887 102.48 101.687 102.48C102.551 102.48 103.277 102.629 103.863 102.928C104.45 103.227 104.893 103.653 105.191 104.208C105.501 104.763 105.655 105.429 105.655 106.208C105.655 106.272 105.655 106.363 105.655 106.48C105.655 106.587 105.645 106.704 105.623 106.832H98.9033ZM107.93 107.024V105.216H113.882V107.024H107.93ZM112.794 102.64H115.114V110H112.794V102.64ZM107.178 102.64H109.514V110H107.178V102.64ZM116.158 102.64H121.326V104.64H116.158V102.64ZM117.582 102.96H119.902V110H117.582V102.96Z" fill="black"/>
</svg>
