<svg width="31" height="30" viewBox="0 0 31 30" fill="none" xmlns="http://www.w3.org/2000/svg">
<path d="M13.0386 19.23C13.0557 19.8401 13.3101 20.4195 13.7477 20.8451C14.1852 21.2706 14.7715 21.5087 15.3819 21.5089C15.9922 21.509 16.5786 21.2711 17.0163 20.8457C17.4541 20.4204 17.7087 19.8411 17.7261 19.2309V4.20656C17.7088 3.59644 17.4543 3.01709 17.0167 2.59164C16.579 2.16619 15.9927 1.92817 15.3823 1.92817C14.772 1.92817 14.1856 2.16619 13.748 2.59164C13.3103 3.01709 13.0558 3.59644 13.0386 4.20656V19.23ZM13.0386 25.7812C13.0386 27.0703 14.0933 28.125 15.3823 28.125C16.6714 28.125 17.7261 27.0703 17.7261 25.7812C17.7261 24.4922 16.6714 23.4375 15.3823 23.4375C14.7613 23.4395 14.1663 23.687 13.7272 24.1262C13.2881 24.5653 13.0406 25.1603 13.0386 25.7812Z" fill="#F24E1E"/>
</svg>
